<svg xmlns="http://www.w3.org/2000/svg" version="1.1" xmlns:xlink="http://www.w3.org/1999/xlink" xmlns:svgjs="http://svgjs.dev/svgjs" width="2000" height="1500" viewBox="0 0 2000 1500"><rect width="2000" height="1500" fill="#999797"></rect><g transform="matrix(0.75,0,0,0.75,249.090909090909,282.7574301619434)"><svg viewBox="0 0 396 247" data-background-color="#999797" preserveAspectRatio="xMidYMid meet" height="1247" width="2000" xmlns="http://www.w3.org/2000/svg" xmlns:xlink="http://www.w3.org/1999/xlink"><g id="tight-bounds" transform="matrix(1,0,0,1,0.2400000000000091,-0.09999999999999432)"><svg viewBox="0 0 395.52 247.2" height="247.2" width="395.52"><g><svg></svg></g><g><svg viewBox="0 0 395.52 247.2" height="247.2" width="395.52"><mask id="5b76c983-05b5-4024-91d1-fbc42f509d07"><rect width="395.52" height="247.2" fill="white"></rect><g transform="matrix(1,0,0,1,0,63.01583312557135)" id="clone"><svg viewBox="0 0 395.52 121.1683337488573" height="121.1683337488573" width="395.52"><g><svg viewBox="0 0 395.52 121.1683337488573" height="121.1683337488573" width="395.52"><g><svg viewBox="0 0 395.52000000000004 121.16833374885731" height="121.1683337488573" width="395.52"><g><svg viewBox="0 0 395.52000000000004 121.16833374885731" height="121.16833374885731" width="395.52000000000004"><g id="SvgjsG1214"><svg viewBox="0 0 395.52000000000004 121.16833374885731" height="121.16833374885731" width="395.52000000000004" id="SvgjsSvg1213"><g><svg viewBox="0 0 395.52000000000004 121.16833374885731" height="121.16833374885731" width="395.52000000000004"><g transform="matrix(1,0,0,1,0,0)"><svg width="395.52000000000004" viewBox="0.7400000095367432 -40.54999923706055 177.25 55" height="121.16833374885731" data-palette-color="#363331"><path d="M22.39-17.5L40.38 0 31.37 0 17.09-14.31 12.62-14.31 12.62-20.7 17.09-20.7 31.37-35.01 40.38-35.01 22.39-17.5ZM10.08-35.01L10.08 0 3.74 0 3.74-35.01 10.08-35.01ZM71.46-17.5L71.46-8.91Q71.46-7.28 71.04-5.97 70.63-4.66 69.94-3.67 69.26-2.69 68.36-1.99 67.45-1.29 66.46-0.85 65.48-0.42 64.46-0.21 63.45 0 62.55 0L62.55 0 51.1 0Q49.78 0 48.22-0.46 46.65-0.93 45.32-1.99 43.99-3.05 43.1-4.75 42.21-6.45 42.21-8.91L42.21-8.91 42.21-17.5Q42.21-19.95 43.1-21.64 43.99-23.34 45.32-24.4 46.65-25.46 48.22-25.93 49.78-26.39 51.1-26.39L51.1-26.39 62.55-26.39Q64.99-26.39 66.7-25.51 68.41-24.63 69.46-23.3 70.51-21.97 70.98-20.41 71.46-18.85 71.46-17.5L71.46-17.5ZM65.11-8.91L65.11-17.46Q65.11-18.77 64.45-19.41 63.79-20.04 62.55-20.04L62.55-20.04 51.14-20.04Q49.88-20.04 49.22-19.4 48.56-18.75 48.56-17.5L48.56-17.5 48.56-8.91Q48.56-7.67 49.22-7.01 49.88-6.35 51.14-6.35L51.14-6.35 62.55-6.35Q63.84-6.35 64.48-7.01 65.11-7.67 65.11-8.91L65.11-8.91ZM105.95-17.5L105.95-8.91Q105.95-8.01 105.74-7.01 105.54-6.01 105.1-5.02 104.66-4.03 103.96-3.13 103.27-2.22 102.28-1.53 101.29-0.83 100-0.42 98.7 0 97.07 0L97.07 0 85.62 0Q84.71 0 83.71-0.21 82.71-0.42 81.72-0.85 80.73-1.29 79.83-1.99 78.93-2.69 78.23-3.67 77.53-4.66 77.12-5.97 76.7-7.28 76.7-8.91L76.7-8.91 76.7-37.55 83.05-37.55 83.05-8.91Q83.05-7.74 83.78-7.04 84.52-6.35 85.62-6.35L85.62-6.35 97.07-6.35Q98.26-6.35 98.93-7.06 99.6-7.76 99.6-8.91L99.6-8.91 99.6-17.5Q99.6-18.7 98.9-19.37 98.19-20.04 97.07-20.04L97.07-20.04 85.62-20.04 85.62-26.39 97.07-26.39Q97.97-26.39 98.97-26.18 99.97-25.98 100.96-25.54 101.95-25.1 102.85-24.4 103.75-23.71 104.44-22.72 105.12-21.73 105.54-20.43 105.95-19.14 105.95-17.5L105.95-17.5ZM140.47-17.5L140.47-8.91Q140.47-8.01 140.26-7.01 140.06-6.01 139.62-5.02 139.18-4.03 138.48-3.13 137.79-2.22 136.8-1.53 135.81-0.83 134.51-0.42 133.22 0 131.58 0L131.58 0 120.13 0Q119.23 0 118.23-0.21 117.23-0.42 116.24-0.85 115.25-1.29 114.35-1.99 113.44-2.69 112.75-3.67 112.05-4.66 111.64-5.97 111.22-7.28 111.22-8.91L111.22-8.91 111.22-37.55 117.57-37.55 117.57-8.91Q117.57-7.74 118.3-7.04 119.04-6.35 120.13-6.35L120.13-6.35 131.58-6.35Q132.78-6.35 133.45-7.06 134.12-7.76 134.12-8.91L134.12-8.91 134.12-17.5Q134.12-18.7 133.42-19.37 132.71-20.04 131.58-20.04L131.58-20.04 120.13-20.04 120.13-26.39 131.58-26.39Q132.49-26.39 133.49-26.18 134.49-25.98 135.48-25.54 136.47-25.1 137.37-24.4 138.27-23.71 138.96-22.72 139.64-21.73 140.06-20.43 140.47-19.14 140.47-17.5L140.47-17.5ZM174.99-26.39L174.99 2.54Q174.99 4.17 174.57 5.48 174.16 6.79 173.48 7.78 172.79 8.76 171.89 9.46 170.99 10.16 170 10.6 169.01 11.04 168.01 11.24 167.01 11.45 166.1 11.45L166.1 11.45 154.65 11.45 154.65 5.1 166.1 5.1Q167.37 5.1 168.01 4.44 168.64 3.78 168.64 2.54L168.64 2.54 168.64-26.39 174.99-26.39ZM166.1-6.35L166.1 0 154.65 0Q153.29 0 151.74-0.46 150.19-0.93 148.84-1.99 147.5-3.05 146.62-4.75 145.74-6.45 145.74-8.91L145.74-8.91 145.74-26.39 152.09-26.39 152.09-8.91Q152.09-7.67 152.75-7.01 153.41-6.35 154.7-6.35L154.7-6.35 166.1-6.35Z" opacity="1" transform="matrix(1,0,0,1,0,0)" fill="black" class="wordmark-text-0" id="SvgjsPath1212" stroke-width="5" stroke="black" stroke-linejoin="round"></path></svg></g></svg></g></svg></g></svg></g></svg></g></svg></g></svg></g></mask><g mask="url(#5b76c983-05b5-4024-91d1-fbc42f509d07)"><g><path xmlns="http://www.w3.org/2000/svg" d="M200.09 123.635l127.025 123.566h-63.618l-100.83-101.041h-31.562v-45.12h31.562l100.83-101.041h63.618zM113.171-0.001v247.202h-44.766v-247.202z" fill="#7c4e29" fill-rule="nonzero" stroke="none" stroke-width="1" stroke-linecap="butt" stroke-linejoin="miter" stroke-miterlimit="10" stroke-dasharray="" stroke-dashoffset="0" font-family="none" font-weight="none" font-size="none" text-anchor="none" style="mix-blend-mode: normal" data-fill-palette-color="tertiary"></path></g></g><g transform="matrix(1,0,0,1,0,63.01583312557135)"><svg viewBox="0 0 395.52 121.1683337488573" height="121.1683337488573" width="395.52"><g><svg viewBox="0 0 395.52 121.1683337488573" height="121.1683337488573" width="395.52"><g><svg viewBox="0 0 395.52000000000004 121.16833374885731" height="121.1683337488573" width="395.52"><g><svg viewBox="0 0 395.52000000000004 121.16833374885731" height="121.16833374885731" width="395.52000000000004"><g id="textblocktransform"><svg viewBox="0 0 395.52000000000004 121.16833374885731" height="121.16833374885731" width="395.52000000000004" id="textblock"><g><svg viewBox="0 0 395.52000000000004 121.16833374885731" height="121.16833374885731" width="395.52000000000004"><g transform="matrix(1,0,0,1,0,0)"><svg width="395.52000000000004" viewBox="0.7400000095367432 -40.54999923706055 177.25 55" height="121.16833374885731" data-palette-color="#363331"><path d="M22.39-17.5L40.38 0 31.37 0 17.09-14.31 12.62-14.31 12.62-20.7 17.09-20.7 31.37-35.01 40.38-35.01 22.39-17.5ZM10.08-35.01L10.08 0 3.74 0 3.74-35.01 10.08-35.01ZM71.46-17.5L71.46-8.91Q71.46-7.28 71.04-5.97 70.63-4.66 69.94-3.67 69.26-2.69 68.36-1.99 67.45-1.29 66.46-0.85 65.48-0.42 64.46-0.21 63.45 0 62.55 0L62.55 0 51.1 0Q49.78 0 48.22-0.46 46.65-0.93 45.32-1.99 43.99-3.05 43.1-4.75 42.21-6.45 42.21-8.91L42.21-8.91 42.21-17.5Q42.21-19.95 43.1-21.64 43.99-23.34 45.32-24.4 46.65-25.46 48.22-25.93 49.78-26.39 51.1-26.39L51.1-26.39 62.55-26.39Q64.99-26.39 66.7-25.51 68.41-24.63 69.46-23.3 70.51-21.97 70.98-20.41 71.46-18.85 71.46-17.5L71.46-17.5ZM65.11-8.91L65.11-17.46Q65.11-18.77 64.45-19.41 63.79-20.04 62.55-20.04L62.55-20.04 51.14-20.04Q49.88-20.04 49.22-19.4 48.56-18.75 48.56-17.5L48.56-17.5 48.56-8.91Q48.56-7.67 49.22-7.01 49.88-6.35 51.14-6.35L51.14-6.35 62.55-6.35Q63.84-6.35 64.48-7.01 65.11-7.67 65.11-8.91L65.11-8.91ZM105.95-17.5L105.95-8.91Q105.95-8.01 105.74-7.01 105.54-6.01 105.1-5.02 104.66-4.03 103.96-3.13 103.27-2.22 102.28-1.53 101.29-0.83 100-0.42 98.7 0 97.07 0L97.07 0 85.62 0Q84.71 0 83.71-0.21 82.71-0.42 81.72-0.85 80.73-1.29 79.83-1.99 78.93-2.69 78.23-3.67 77.53-4.66 77.12-5.97 76.7-7.28 76.7-8.91L76.7-8.91 76.7-37.55 83.05-37.55 83.05-8.91Q83.05-7.74 83.78-7.04 84.52-6.35 85.62-6.35L85.62-6.35 97.07-6.35Q98.26-6.35 98.93-7.06 99.6-7.76 99.6-8.91L99.6-8.91 99.6-17.5Q99.6-18.7 98.9-19.37 98.19-20.04 97.07-20.04L97.07-20.04 85.62-20.04 85.62-26.39 97.07-26.39Q97.97-26.39 98.97-26.18 99.97-25.98 100.96-25.54 101.95-25.1 102.85-24.4 103.75-23.71 104.44-22.72 105.12-21.73 105.54-20.43 105.95-19.14 105.95-17.5L105.95-17.5ZM140.47-17.5L140.47-8.91Q140.47-8.01 140.26-7.01 140.06-6.01 139.62-5.02 139.18-4.03 138.48-3.13 137.79-2.22 136.8-1.53 135.81-0.83 134.51-0.42 133.22 0 131.58 0L131.58 0 120.13 0Q119.23 0 118.23-0.21 117.23-0.42 116.24-0.85 115.25-1.29 114.35-1.99 113.44-2.69 112.75-3.67 112.05-4.66 111.64-5.97 111.22-7.28 111.22-8.91L111.22-8.91 111.22-37.55 117.57-37.55 117.57-8.91Q117.57-7.74 118.3-7.04 119.04-6.35 120.13-6.35L120.13-6.35 131.58-6.35Q132.78-6.35 133.45-7.06 134.12-7.76 134.12-8.91L134.12-8.91 134.12-17.5Q134.12-18.7 133.42-19.37 132.71-20.04 131.58-20.04L131.58-20.04 120.13-20.04 120.13-26.39 131.58-26.39Q132.49-26.39 133.49-26.18 134.49-25.98 135.48-25.54 136.47-25.1 137.37-24.4 138.27-23.71 138.96-22.72 139.64-21.73 140.06-20.43 140.47-19.14 140.47-17.5L140.47-17.5ZM174.99-26.39L174.99 2.54Q174.99 4.17 174.57 5.48 174.16 6.79 173.48 7.78 172.79 8.76 171.89 9.46 170.99 10.16 170 10.6 169.01 11.04 168.01 11.24 167.01 11.45 166.1 11.45L166.1 11.45 154.65 11.45 154.65 5.1 166.1 5.1Q167.37 5.1 168.01 4.44 168.64 3.78 168.64 2.54L168.64 2.54 168.64-26.39 174.99-26.39ZM166.1-6.35L166.1 0 154.65 0Q153.29 0 151.74-0.46 150.19-0.93 148.84-1.99 147.5-3.05 146.62-4.75 145.74-6.45 145.74-8.91L145.74-8.91 145.74-26.39 152.09-26.39 152.09-8.91Q152.09-7.67 152.75-7.01 153.41-6.35 154.7-6.35L154.7-6.35 166.1-6.35Z" opacity="1" transform="matrix(1,0,0,1,0,0)" fill="#363331" class="wordmark-text-0" data-fill-palette-color="primary" id="text-0"></path></svg></g></svg></g></svg></g></svg></g></svg></g></svg></g></svg></g></svg></g><defs></defs></svg><rect width="395.52" height="247.2" fill="none" stroke="none" visibility="hidden"></rect></g></svg></g></svg>