<svg xmlns="http://www.w3.org/2000/svg" version="1.1" xmlns:xlink="http://www.w3.org/1999/xlink" xmlns:svgjs="http://svgjs.dev/svgjs" width="2000" height="1500" viewBox="0 0 2000 1500"><rect width="2000" height="1500" fill="#ffffff"></rect><g transform="matrix(0.75,0,0,0.75,249.090909090909,282.7536437246963)"><svg viewBox="0 0 396 247" data-background-color="#ffffff" preserveAspectRatio="xMidYMid meet" height="1247" width="2000" xmlns="http://www.w3.org/2000/svg" xmlns:xlink="http://www.w3.org/1999/xlink"><g id="tight-bounds" transform="matrix(1,0,0,1,0.2400000000000091,-0.09999999999999432)"><svg viewBox="0 0 395.52 247.2" height="247.2" width="395.52"><rect width="395.5199890136719" height="247.1999969482422" fill="url(#0958eebc-01d5-4372-8ad8-dcce72e86b00)" mask="url(#0cd28517-2099-4766-89cb-7b321f5551be)" data-fill-palette-color="tertiary"></rect><g><svg></svg></g><g><svg viewBox="0 0 395.52 247.2" height="247.2" width="395.52"><mask id="b39c5d63-4d74-47ae-8d38-ac7372304f6e"><rect width="395.52" height="247.2" fill="white"></rect><g transform="matrix(1,0,0,1,28.098992805755415,37.08)" id="clone"><svg viewBox="0 0 339.32201438848915 173.04" height="173.04" width="339.32201438848915"><g><svg viewBox="0 0 339.32201438848915 173.04" height="173.04" width="339.32201438848915"><g><svg viewBox="0 0 339.32201438848915 173.04" height="173.04" width="339.32201438848915"><g><svg viewBox="0 0 339.32201438848915 173.04" height="173.04" width="339.32201438848915"><g id="SvgjsG2496"><svg viewBox="0 0 339.32201438848915 173.04" height="173.04" width="339.32201438848915" id="SvgjsSvg2495"><g><svg viewBox="0 0 339.32201438848915 173.04" height="173.04" width="339.32201438848915"><g transform="matrix(1,0,0,1,0,0)"><svg width="339.32201438848915" viewBox="-1.899999976158142 -40.20000076293945 96.4000015258789 49.650001525878906" height="173.04" data-palette-color="#111111"><path d="M41.6-34.85L41.6-34.85Q42.65-34.85 42.65-34.1L42.65-34.1Q42.65-31.05 34.25-16.65L34.25-16.65Q34.6-15.3 35.35-13.5L35.35-13.5 50.25-24.85Q58.8-31.35 61.8-33.2L61.8-33.2Q68.5-37.2 74.95-37.2L74.95-37.2Q76.8-37.2 78.35-36.6L78.35-36.6Q79.3-36.25 79.3-35.3 79.3-34.35 78.8-34.35L78.8-34.35Q78.5-34.35 78.18-34.75 77.85-35.15 76.28-35.15 74.7-35.15 71.15-34.35L71.15-34.35Q65.55-33.1 58.45-28.75L58.45-28.75Q54-26 46.55-20.3 39.1-14.6 35.8-12.45L35.8-12.45Q38.35-7.1 42.35-2.5L42.35-2.5Q48.5 4.65 53.4 4.65L53.4 4.65Q55.8 4.65 55.8 2.8L55.8 2.8Q55.8 2.45 55.73 2.1 55.65 1.75 55.9 1.25 56.15 0.75 56.5 0.75L56.5 0.75Q57.15 0.75 57.35 2.3L57.35 2.3Q57.4 2.55 57.4 2.8L57.4 2.8Q57.4 4.4 55.78 5.43 54.15 6.45 51.93 6.45 49.7 6.45 48.2 5.75L48.2 5.75Q44.25 3.8 40.23-1.1 36.2-6 34.05-11.4L34.05-11.4Q31.3-9.8 29.5-9.65L29.5-9.65Q26.15-5.3 21.25-1.2L21.25-1.2Q18.6 1.05 15.5 2.43 12.4 3.8 9.55 3.8L9.55 3.8Q5.5 3.8 3.3 1.78 1.1-0.25 1.1-4.4L1.1-4.4Q1.1-6.45 1.9-8.2L1.9-8.2Q4.45-13.85 9.6-16L9.6-16Q12.45-17.25 15.28-17.25 18.1-17.25 19.05-15.4L19.05-15.4Q19.4-14.75 19.4-14.03 19.4-13.3 19.2-13.1 19-12.9 18.65-13.45L18.65-13.45Q17.45-15.65 16.1-15.9L16.1-15.9Q15.2-16 14.8-16L14.8-16Q10.9-16 7.5-12.75L7.5-12.75Q3.1-8.5 3.1-3.55L3.1-3.55Q3.1 1.85 9.2 2.55L9.2 2.55Q9.4 2.55 9.6 2.55L9.6 2.55Q11.8 2.55 15.25 0.6L15.25 0.6Q20.85-2.6 27.2-10.4L27.2-10.4Q26.05-11.45 26.05-13.5 26.05-15.55 27.58-17.38 29.1-19.2 31.75-19.2L31.75-19.2Q32.5-19.2 33.15-19.05L33.15-19.05Q35.65-23.25 38-28.13 40.35-33 40.35-33.75L40.35-33.75Q40.35-33.85 40.05-33.85 39.75-33.85 36.58-32.27 33.4-30.7 32.05-29.8 30.7-28.9 28.75-26.98 26.8-25.05 26.8-23.85L26.8-23.85Q26.8-23.3 27.58-22.75 28.35-22.2 30.4-22.2L30.4-22.2Q30.65-22.1 30.65-21.93 30.65-21.75 29.28-21.53 27.9-21.3 27.1-21.3L27.1-21.3Q25.3-21.3 25.3-22.8L25.3-22.8Q25.3-24.55 27.45-27 29.6-29.45 32.15-30.85L32.15-30.85Q39.6-34.85 41.6-34.85ZM33.65-12.45L33.65-12.45Q33.25-13.45 33-14.45L33-14.45Q32-13 31-11.6L31-11.6Q31.5-11.6 31.9-11.68 32.3-11.75 33.65-12.45ZM31.75-16.75L31.75-16.75Q31.15-17 30.43-17 29.7-17 28.98-16.1 28.25-15.2 28.25-14.18 28.25-13.15 28.8-12.45L28.8-12.45Q31.25-15.95 31.75-16.75ZM85.3-9.45L85.3-9.45Q85.3-7.65 84.5-6.05L84.5-6.05Q82.8-2.45 78-0.05 73.2 2.35 68 2.35L68 2.35Q60.1 2.35 57.25-3.05L57.25-3.05Q52.1 1.25 49.9 1.25L49.9 1.25Q49.5 1.25 49.2 1.1L49.2 1.1Q47.7 0.3 47.7-2.35 47.7-5 49.9-8.85 52.1-12.7 53.75-13.4L53.75-13.4Q54.5-13.65 54.9-13.65L54.9-13.65Q56.35-13.65 57.1-11.25L57.1-11.25 58.6-6.45Q60.05-8 62.55-11.4L62.55-11.4 67-17.4Q75.2-28.05 77.75-29.05L77.75-29.05Q78.65-29.4 79.6-29.4 80.55-29.4 81.17-29 81.8-28.6 81.8-28L81.8-28Q81.8-27.1 80.35-26.95L80.35-26.95Q78.85-26.1 74.62-21.98 70.4-17.85 69.6-16.75L69.6-16.75Q64-8.95 59.25-4.75L59.25-4.75Q62.3 1.3 68.4 1.3L68.4 1.3Q72.1 1.3 75.75-1.03 79.4-3.35 81.2-6.75L81.2-6.75Q82-8.2 82-10 82-11.8 80.57-13.43 79.15-15.05 77-15.8L77-15.8Q76-15.95 73.8-16.23 71.6-16.5 71.6-17.15L71.6-17.15Q71.6-17.4 71.8-17.6L71.8-17.6Q72.4-18.3 73.35-18.3L73.35-18.3Q73.9-18.3 74.42-18.1 74.95-17.9 75.25-17.8 75.55-17.7 75.95-17.55L75.95-17.55Q77.05-17.45 77.85-17.45L77.85-17.45Q81.15-17.45 83.85-18.5L83.85-18.5Q87.3-19.85 88.25-22.55L88.25-22.55Q88.85-24.3 88.85-25.7L88.85-25.7Q88.85-29.15 85.5-30.85L85.5-30.85Q82.6-32.35 77.55-32.35L77.55-32.35Q69.6-32.35 63.3-29.35L63.3-29.35Q60.1-27.85 57.22-24.9 54.35-21.95 54.35-19.85L54.35-19.85Q54.35-18.4 55.1-17.45L55.1-17.45Q55.4-17.05 56.15-16.45L56.15-16.45Q56.4-16.3 55.85-16.3L55.85-16.3Q52.75-17 52.75-20.45 52.75-23.9 56.25-26.95L56.25-26.95Q58.85-29.2 62.1-30.6L62.1-30.6Q68.85-33.5 77.45-33.5L77.45-33.5Q83.6-33.5 87.25-31.7L87.25-31.7Q91.5-29.7 91.5-25.65L91.5-25.65Q91.5-24.05 90.85-22.4L90.85-22.4Q89.8-19.4 85.4-17.85L85.4-17.85Q82.1-16.7 78.3-16.65L78.3-16.65Q81.25-16.5 83.27-14.48 85.3-12.45 85.3-9.45ZM53.35-11.3L53.35-11.3Q53.3-11.3 53.1-11.2L53.1-11.2Q49.4-5.85 49.4-2.6L49.4-2.6Q49.4-1.25 50.05-0.15L50.05-0.15Q50.2 0.1 50.55 0.1L50.55 0.1Q52.15 0.1 56.7-4.45L56.7-4.45 56.55-4.65Q54.55-11.3 53.35-11.3Z" opacity="1" transform="matrix(1,0,0,1,0,0)" fill="black" class="wordmark-text-0" id="SvgjsPath2494" stroke-width="5" stroke="black" stroke-linejoin="round"></path></svg></g></svg></g></svg></g></svg></g><g></g></svg></g></svg></g></svg></g></mask><g mask="url(#b39c5d63-4d74-47ae-8d38-ac7372304f6e)"><g><path xmlns="http://www.w3.org/2000/svg" d="M203.807 39.484v0c3.023 0 4.535 1.08 4.535 3.24v0c0 8.782-12.094 33.905-36.281 75.369v0c1.008 3.887 2.591 8.422 4.751 13.605v0l64.356-49.022c24.619-18.716 41.248-30.738 49.886-36.065v0c19.292-11.518 38.225-17.277 56.797-17.277v0c5.327 0 10.222 0.864 14.685 2.592v0c2.735 1.008 4.103 2.879 4.103 5.615 0 2.735-0.72 4.103-2.16 4.103v0c-0.864 0-1.756-0.576-2.677-1.728-0.95-1.152-3.686-1.728-8.207-1.727-4.55 0-11.935 1.152-22.157 3.455v0c-16.125 3.599-34.409 11.662-54.853 24.187v0c-12.813 7.918-29.946 20.084-51.398 36.497-21.452 16.413-36.929 27.715-46.431 33.906v0c7.343 15.405 16.773 29.73 28.29 42.975v0c17.709 20.588 33.617 30.882 47.727 30.882v0c6.911 0 10.366-2.663 10.366-7.99v0c0-1.008-0.101-2.016-0.303-3.024-0.23-1.008 0.014-2.232 0.735-3.671 0.72-1.44 1.584-2.16 2.591-2.16v0c1.872 0 3.095 2.232 3.672 6.695v0c0.144 0.72 0.216 1.44 0.215 2.16v0c0 4.607-2.332 8.394-6.997 11.359-4.693 2.937-10.236 4.406-16.628 4.406-6.421 0-11.791-1.008-16.111-3.024v0c-11.374-5.615-22.848-15.477-34.423-29.586-11.604-14.109-20.502-28.938-26.693-44.487v0c-7.918 4.607-14.469 7.127-19.652 7.558v0c-9.646 12.526-21.524 24.691-35.633 36.497v0c-7.631 6.479-15.909 11.705-24.835 15.679-8.926 3.945-17.493 5.917-25.699 5.917v0c-11.662 0-20.66-2.908-26.995-8.725-6.335-5.845-9.502-14.743-9.502-26.692v0c0-5.903 1.152-11.374 3.455-16.413v0c7.343-16.269 18.428-27.499 33.258-33.689v0c8.206-3.599 16.384-5.399 24.533-5.399 8.12 0 13.548 2.663 16.283 7.99v0c1.008 1.872 1.512 3.844 1.512 5.917 0 2.102-0.288 3.441-0.864 4.017-0.576 0.576-1.368 0.072-2.376-1.512v0c-3.455-6.335-7.127-9.862-11.014-10.582v0c-2.591-0.288-4.463-0.432-5.615-0.431v0c-11.23 0-21.74 4.679-31.529 14.037v0c-12.67 12.238-19.004 25.483-19.005 39.736v0c0 15.549 8.782 24.331 26.347 26.347v0c0.576 0 1.152 0 1.728 0v0c6.335 0 14.469-2.807 24.403-8.422v0c16.125-9.214 33.329-25.051 51.614-47.511v0c-3.311-3.023-4.967-7.487-4.967-13.39 0-5.903 2.203-11.489 6.608-16.758 4.377-5.241 10.38-7.861 18.011-7.861v0c2.16 0 4.175 0.216 6.047 0.648v0c7.199-12.094 14.181-25.166 20.948-39.218 6.767-14.023 10.15-22.114 10.15-24.273v0c0-0.288-0.432-0.432-1.296-0.432-0.864 0-5.86 2.275-14.987 6.824-9.157 4.521-15.679 8.077-19.566 10.668-3.887 2.591-8.638 6.652-14.253 12.18-5.615 5.557-8.422 10.064-8.423 13.519v0c0 1.584 1.123 3.167 3.369 4.751 2.217 1.584 6.277 2.376 12.18 2.376v0c0.72 0.288 1.08 0.677 1.08 1.166 0 0.518-1.972 1.094-5.917 1.728-3.974 0.662-7.112 0.993-9.416 0.993v0c-5.183 0-7.774-2.16-7.774-6.479v0c0-5.039 3.095-11.086 9.286-18.14 6.191-7.055 12.957-12.598 20.3-16.629v0c21.452-11.518 35.057-17.277 40.816-17.277zM169.47 136.234v0c-1.152-2.879-2.088-5.759-2.808-8.639v0c-2.879 4.175-5.759 8.278-8.638 12.31v0c1.44 0 2.735-0.115 3.887-0.346 1.152-0.202 3.671-1.31 7.559-3.325zM161.263 117.661v0c-1.728-0.72-3.628-1.08-5.701-1.08-2.102 0-4.19 1.296-6.263 3.888-2.102 2.591-3.153 5.356-3.153 8.292 0 2.966 0.792 5.457 2.376 7.473v0c7.055-10.078 11.302-16.269 12.741-18.573z" fill="url(#0958eebc-01d5-4372-8ad8-dcce72e86b00)" fill-rule="nonzero" stroke="none" stroke-width="1" stroke-linecap="butt" stroke-linejoin="miter" stroke-miterlimit="10" stroke-dasharray="" stroke-dashoffset="0" font-family="none" font-weight="none" font-size="none" text-anchor="none" style="mix-blend-mode: normal" data-fill-palette-color="tertiary"></path></g></g><g transform="matrix(1,0,0,1,28.098992805755415,37.08)"><svg viewBox="0 0 339.32201438848915 173.04" height="173.04" width="339.32201438848915"><g><svg viewBox="0 0 339.32201438848915 173.04" height="173.04" width="339.32201438848915"><g><svg viewBox="0 0 339.32201438848915 173.04" height="173.04" width="339.32201438848915"><g><svg viewBox="0 0 339.32201438848915 173.04" height="173.04" width="339.32201438848915"><g id="textblocktransform"><svg viewBox="0 0 339.32201438848915 173.04" height="173.04" width="339.32201438848915" id="textblock"><g><svg viewBox="0 0 339.32201438848915 173.04" height="173.04" width="339.32201438848915"><g transform="matrix(1,0,0,1,0,0)"><svg width="339.32201438848915" viewBox="-1.899999976158142 -40.20000076293945 96.4000015258789 49.650001525878906" height="173.04" data-palette-color="#111111"><path d="M41.6-34.85L41.6-34.85Q42.65-34.85 42.65-34.1L42.65-34.1Q42.65-31.05 34.25-16.65L34.25-16.65Q34.6-15.3 35.35-13.5L35.35-13.5 50.25-24.85Q58.8-31.35 61.8-33.2L61.8-33.2Q68.5-37.2 74.95-37.2L74.95-37.2Q76.8-37.2 78.35-36.6L78.35-36.6Q79.3-36.25 79.3-35.3 79.3-34.35 78.8-34.35L78.8-34.35Q78.5-34.35 78.18-34.75 77.85-35.15 76.28-35.15 74.7-35.15 71.15-34.35L71.15-34.35Q65.55-33.1 58.45-28.75L58.45-28.75Q54-26 46.55-20.3 39.1-14.6 35.8-12.45L35.8-12.45Q38.35-7.1 42.35-2.5L42.35-2.5Q48.5 4.65 53.4 4.65L53.4 4.65Q55.8 4.65 55.8 2.8L55.8 2.8Q55.8 2.45 55.73 2.1 55.65 1.75 55.9 1.25 56.15 0.75 56.5 0.75L56.5 0.75Q57.15 0.75 57.35 2.3L57.35 2.3Q57.4 2.55 57.4 2.8L57.4 2.8Q57.4 4.4 55.78 5.43 54.15 6.45 51.93 6.45 49.7 6.45 48.2 5.75L48.2 5.75Q44.25 3.8 40.23-1.1 36.2-6 34.05-11.4L34.05-11.4Q31.3-9.8 29.5-9.65L29.5-9.65Q26.15-5.3 21.25-1.2L21.25-1.2Q18.6 1.05 15.5 2.43 12.4 3.8 9.55 3.8L9.55 3.8Q5.5 3.8 3.3 1.78 1.1-0.25 1.1-4.4L1.1-4.4Q1.1-6.45 1.9-8.2L1.9-8.2Q4.45-13.85 9.6-16L9.6-16Q12.45-17.25 15.28-17.25 18.1-17.25 19.05-15.4L19.05-15.4Q19.4-14.75 19.4-14.03 19.4-13.3 19.2-13.1 19-12.9 18.65-13.45L18.65-13.45Q17.45-15.65 16.1-15.9L16.1-15.9Q15.2-16 14.8-16L14.8-16Q10.9-16 7.5-12.75L7.5-12.75Q3.1-8.5 3.1-3.55L3.1-3.55Q3.1 1.85 9.2 2.55L9.2 2.55Q9.4 2.55 9.6 2.55L9.6 2.55Q11.8 2.55 15.25 0.6L15.25 0.6Q20.85-2.6 27.2-10.4L27.2-10.4Q26.05-11.45 26.05-13.5 26.05-15.55 27.58-17.38 29.1-19.2 31.75-19.2L31.75-19.2Q32.5-19.2 33.15-19.05L33.15-19.05Q35.65-23.25 38-28.13 40.35-33 40.35-33.75L40.35-33.75Q40.35-33.85 40.05-33.85 39.75-33.85 36.58-32.27 33.4-30.7 32.05-29.8 30.7-28.9 28.75-26.98 26.8-25.05 26.8-23.85L26.8-23.85Q26.8-23.3 27.58-22.75 28.35-22.2 30.4-22.2L30.4-22.2Q30.65-22.1 30.65-21.93 30.65-21.75 29.28-21.53 27.9-21.3 27.1-21.3L27.1-21.3Q25.3-21.3 25.3-22.8L25.3-22.8Q25.3-24.55 27.45-27 29.6-29.45 32.15-30.85L32.15-30.85Q39.6-34.85 41.6-34.85ZM33.65-12.45L33.65-12.45Q33.25-13.45 33-14.45L33-14.45Q32-13 31-11.6L31-11.6Q31.5-11.6 31.9-11.68 32.3-11.75 33.65-12.45ZM31.75-16.75L31.75-16.75Q31.15-17 30.43-17 29.7-17 28.98-16.1 28.25-15.2 28.25-14.18 28.25-13.15 28.8-12.45L28.8-12.45Q31.25-15.95 31.75-16.75ZM85.3-9.45L85.3-9.45Q85.3-7.65 84.5-6.05L84.5-6.05Q82.8-2.45 78-0.05 73.2 2.35 68 2.35L68 2.35Q60.1 2.35 57.25-3.05L57.25-3.05Q52.1 1.25 49.9 1.25L49.9 1.25Q49.5 1.25 49.2 1.1L49.2 1.1Q47.7 0.3 47.7-2.35 47.7-5 49.9-8.85 52.1-12.7 53.75-13.4L53.75-13.4Q54.5-13.65 54.9-13.65L54.9-13.65Q56.35-13.65 57.1-11.25L57.1-11.25 58.6-6.45Q60.05-8 62.55-11.4L62.55-11.4 67-17.4Q75.2-28.05 77.75-29.05L77.75-29.05Q78.65-29.4 79.6-29.4 80.55-29.4 81.17-29 81.8-28.6 81.8-28L81.8-28Q81.8-27.1 80.35-26.95L80.35-26.95Q78.85-26.1 74.62-21.98 70.4-17.85 69.6-16.75L69.6-16.75Q64-8.95 59.25-4.75L59.25-4.75Q62.3 1.3 68.4 1.3L68.4 1.3Q72.1 1.3 75.75-1.03 79.4-3.35 81.2-6.75L81.2-6.75Q82-8.2 82-10 82-11.8 80.57-13.43 79.15-15.05 77-15.8L77-15.8Q76-15.95 73.8-16.23 71.6-16.5 71.6-17.15L71.6-17.15Q71.6-17.4 71.8-17.6L71.8-17.6Q72.4-18.3 73.35-18.3L73.35-18.3Q73.9-18.3 74.42-18.1 74.95-17.9 75.25-17.8 75.55-17.7 75.95-17.55L75.95-17.55Q77.05-17.45 77.85-17.45L77.85-17.45Q81.15-17.45 83.85-18.5L83.85-18.5Q87.3-19.85 88.25-22.55L88.25-22.55Q88.85-24.3 88.85-25.7L88.85-25.7Q88.85-29.15 85.5-30.85L85.5-30.85Q82.6-32.35 77.55-32.35L77.55-32.35Q69.6-32.35 63.3-29.35L63.3-29.35Q60.1-27.85 57.22-24.9 54.35-21.95 54.35-19.85L54.35-19.85Q54.35-18.4 55.1-17.45L55.1-17.45Q55.4-17.05 56.15-16.45L56.15-16.45Q56.4-16.3 55.85-16.3L55.85-16.3Q52.75-17 52.75-20.45 52.75-23.9 56.25-26.95L56.25-26.95Q58.85-29.2 62.1-30.6L62.1-30.6Q68.85-33.5 77.45-33.5L77.45-33.5Q83.6-33.5 87.25-31.7L87.25-31.7Q91.5-29.7 91.5-25.65L91.5-25.65Q91.5-24.05 90.85-22.4L90.85-22.4Q89.8-19.4 85.4-17.85L85.4-17.85Q82.1-16.7 78.3-16.65L78.3-16.65Q81.25-16.5 83.27-14.48 85.3-12.45 85.3-9.45ZM53.35-11.3L53.35-11.3Q53.3-11.3 53.1-11.2L53.1-11.2Q49.4-5.85 49.4-2.6L49.4-2.6Q49.4-1.25 50.05-0.15L50.05-0.15Q50.2 0.1 50.55 0.1L50.55 0.1Q52.15 0.1 56.7-4.45L56.7-4.45 56.55-4.65Q54.55-11.3 53.35-11.3Z" opacity="1" transform="matrix(1,0,0,1,0,0)" fill="#111111" class="wordmark-text-0" data-fill-palette-color="primary" id="text-0"></path></svg></g></svg></g></svg></g></svg></g><g></g></svg></g></svg></g></svg></g></svg></g><defs></defs><mask id="0cd28517-2099-4766-89cb-7b321f5551be"><g id="SvgjsG2506"><svg viewBox="0 0 395.52 247.2" height="247.2" width="395.52"><g><svg></svg></g><g><svg viewBox="0 0 395.52 247.2" height="247.2" width="395.52"><mask id="SvgjsMask2505"><g transform="matrix(1,0,0,1,28.098992805755415,37.08)" id="SvgjsG2504"><svg viewBox="0 0 339.32201438848915 173.04" height="173.04" width="339.32201438848915"><g><svg viewBox="0 0 339.32201438848915 173.04" height="173.04" width="339.32201438848915"><g><svg viewBox="0 0 339.32201438848915 173.04" height="173.04" width="339.32201438848915"><g><svg viewBox="0 0 339.32201438848915 173.04" height="173.04" width="339.32201438848915"><g id="SvgjsG2503"><svg viewBox="0 0 339.32201438848915 173.04" height="173.04" width="339.32201438848915" id="SvgjsSvg2502"><g><svg viewBox="0 0 339.32201438848915 173.04" height="173.04" width="339.32201438848915"><g transform="matrix(1,0,0,1,0,0)"><svg width="339.32201438848915" viewBox="-1.899999976158142 -40.20000076293945 96.4000015258789 49.650001525878906" height="173.04" data-palette-color="#111111"></svg></g></svg></g></svg></g></svg></g><g></g></svg></g></svg></g></svg></g></mask><g mask="url(#b39c5d63-4d74-47ae-8d38-ac7372304f6e)"><g><path xmlns="http://www.w3.org/2000/svg" d="M203.807 39.484v0c3.023 0 4.535 1.08 4.535 3.24v0c0 8.782-12.094 33.905-36.281 75.369v0c1.008 3.887 2.591 8.422 4.751 13.605v0l64.356-49.022c24.619-18.716 41.248-30.738 49.886-36.065v0c19.292-11.518 38.225-17.277 56.797-17.277v0c5.327 0 10.222 0.864 14.685 2.592v0c2.735 1.008 4.103 2.879 4.103 5.615 0 2.735-0.72 4.103-2.16 4.103v0c-0.864 0-1.756-0.576-2.677-1.728-0.95-1.152-3.686-1.728-8.207-1.727-4.55 0-11.935 1.152-22.157 3.455v0c-16.125 3.599-34.409 11.662-54.853 24.187v0c-12.813 7.918-29.946 20.084-51.398 36.497-21.452 16.413-36.929 27.715-46.431 33.906v0c7.343 15.405 16.773 29.73 28.29 42.975v0c17.709 20.588 33.617 30.882 47.727 30.882v0c6.911 0 10.366-2.663 10.366-7.99v0c0-1.008-0.101-2.016-0.303-3.024-0.23-1.008 0.014-2.232 0.735-3.671 0.72-1.44 1.584-2.16 2.591-2.16v0c1.872 0 3.095 2.232 3.672 6.695v0c0.144 0.72 0.216 1.44 0.215 2.16v0c0 4.607-2.332 8.394-6.997 11.359-4.693 2.937-10.236 4.406-16.628 4.406-6.421 0-11.791-1.008-16.111-3.024v0c-11.374-5.615-22.848-15.477-34.423-29.586-11.604-14.109-20.502-28.938-26.693-44.487v0c-7.918 4.607-14.469 7.127-19.652 7.558v0c-9.646 12.526-21.524 24.691-35.633 36.497v0c-7.631 6.479-15.909 11.705-24.835 15.679-8.926 3.945-17.493 5.917-25.699 5.917v0c-11.662 0-20.66-2.908-26.995-8.725-6.335-5.845-9.502-14.743-9.502-26.692v0c0-5.903 1.152-11.374 3.455-16.413v0c7.343-16.269 18.428-27.499 33.258-33.689v0c8.206-3.599 16.384-5.399 24.533-5.399 8.12 0 13.548 2.663 16.283 7.99v0c1.008 1.872 1.512 3.844 1.512 5.917 0 2.102-0.288 3.441-0.864 4.017-0.576 0.576-1.368 0.072-2.376-1.512v0c-3.455-6.335-7.127-9.862-11.014-10.582v0c-2.591-0.288-4.463-0.432-5.615-0.431v0c-11.23 0-21.74 4.679-31.529 14.037v0c-12.67 12.238-19.004 25.483-19.005 39.736v0c0 15.549 8.782 24.331 26.347 26.347v0c0.576 0 1.152 0 1.728 0v0c6.335 0 14.469-2.807 24.403-8.422v0c16.125-9.214 33.329-25.051 51.614-47.511v0c-3.311-3.023-4.967-7.487-4.967-13.39 0-5.903 2.203-11.489 6.608-16.758 4.377-5.241 10.38-7.861 18.011-7.861v0c2.16 0 4.175 0.216 6.047 0.648v0c7.199-12.094 14.181-25.166 20.948-39.218 6.767-14.023 10.15-22.114 10.15-24.273v0c0-0.288-0.432-0.432-1.296-0.432-0.864 0-5.86 2.275-14.987 6.824-9.157 4.521-15.679 8.077-19.566 10.668-3.887 2.591-8.638 6.652-14.253 12.18-5.615 5.557-8.422 10.064-8.423 13.519v0c0 1.584 1.123 3.167 3.369 4.751 2.217 1.584 6.277 2.376 12.18 2.376v0c0.72 0.288 1.08 0.677 1.08 1.166 0 0.518-1.972 1.094-5.917 1.728-3.974 0.662-7.112 0.993-9.416 0.993v0c-5.183 0-7.774-2.16-7.774-6.479v0c0-5.039 3.095-11.086 9.286-18.14 6.191-7.055 12.957-12.598 20.3-16.629v0c21.452-11.518 35.057-17.277 40.816-17.277zM169.47 136.234v0c-1.152-2.879-2.088-5.759-2.808-8.639v0c-2.879 4.175-5.759 8.278-8.638 12.31v0c1.44 0 2.735-0.115 3.887-0.346 1.152-0.202 3.671-1.31 7.559-3.325zM161.263 117.661v0c-1.728-0.72-3.628-1.08-5.701-1.08-2.102 0-4.19 1.296-6.263 3.888-2.102 2.591-3.153 5.356-3.153 8.292 0 2.966 0.792 5.457 2.376 7.473v0c7.055-10.078 11.302-16.269 12.741-18.573z" fill="white" fill-rule="nonzero" stroke="none" stroke-width="1" stroke-linecap="butt" stroke-linejoin="miter" stroke-miterlimit="10" stroke-dasharray="" stroke-dashoffset="0" font-family="none" font-weight="none" font-size="none" text-anchor="none" style="mix-blend-mode: normal"></path></g></g><g transform="matrix(1,0,0,1,28.098992805755415,37.08)"><svg viewBox="0 0 339.32201438848915 173.04" height="173.04" width="339.32201438848915"><g><svg viewBox="0 0 339.32201438848915 173.04" height="173.04" width="339.32201438848915"><g><svg viewBox="0 0 339.32201438848915 173.04" height="173.04" width="339.32201438848915"><g><svg viewBox="0 0 339.32201438848915 173.04" height="173.04" width="339.32201438848915"><g id="SvgjsG2500"><svg viewBox="0 0 339.32201438848915 173.04" height="173.04" width="339.32201438848915" id="SvgjsSvg2499"><g><svg viewBox="0 0 339.32201438848915 173.04" height="173.04" width="339.32201438848915"><g transform="matrix(1,0,0,1,0,0)"><svg width="339.32201438848915" viewBox="-1.899999976158142 -40.20000076293945 96.4000015258789 49.650001525878906" height="173.04" data-palette-color="#111111"></svg></g></svg></g></svg></g></svg></g><g></g></svg></g></svg></g></svg></g></svg></g><defs><mask></mask></defs></svg></g></mask><linearGradient x1="0.054" x2="0.941" y1="0.5" y2="0.5" id="0958eebc-01d5-4372-8ad8-dcce72e86b00"><stop stop-color="#0f3054" offset="0"></stop><stop stop-color="#3b8dcb" offset="0.498"></stop><stop stop-color="#0f3054" offset="1"></stop></linearGradient></svg><rect width="395.52" height="247.2" fill="none" stroke="none" visibility="hidden"></rect></g></svg></g></svg>